Coordinates
version=1
nRows=4
nColumns=63
inDegrees=yes

Units are S.I. units (second, meters, Newtons, ...)
If the header above contains a line with 'inDegrees', this indicates whether rotational values are in degrees (yes) or radians (no).

endheader
time	pelvis_tilt	pelvis_list	pelvis_rotation	pelvis_tx	pelvis_ty	pelvis_tz	hip_flexion_r	hip_adduction_r	hip_rotation_r	knee_angle_r	knee_angle_r_beta	ankle_angle_r	subtalar_angle_r	mtp_angle_r	hip_flexion_l	hip_adduction_l	hip_rotation_l	knee_angle_l	knee_angle_l_beta	ankle_angle_l	subtalar_angle_l	mtp_angle_l	L5_S1_Flex_Ext	L5_S1_Lat_Bending	L5_S1_axial_rotation	L4_L5_Flex_Ext	L4_L5_Lat_Bending	L4_L5_axial_rotation	L3_L4_Flex_Ext	L3_L4_Lat_Bending	L3_L4_axial_rotation	L2_L3_Flex_Ext	L2_L3_Lat_Bending	L2_L3_axial_rotation	L1_L2_Flex_Ext	L1_L2_Lat_Bending	L1_L2_axial_rotation	L1_T12_Flex_Ext	L1_T12_Lat_Bending	L1_T12_axial_rotation	Abs_r3	Abs_r2	Abs_r1	Abs_t1	Abs_t2	neck_flexion	neck_bending	neck_rotation	arm_flex_r	arm_add_r	arm_rot_r	elbow_flex_r	pro_sup_r	wrist_flex_r	wrist_dev_r	arm_flex_l	arm_add_l	arm_rot_l	elbow_flex_l	pro_sup_l	wrist_flex_l	wrist_dev_l
      0.00000000	      2.10232522	     -2.74562431	     92.77519459	      0.14561188	      1.14387985	      0.41506831	      4.52309777	      0.94707878	     -3.77640183	     12.94499040	      0.22593270	     38.93090892	      9.70944278	      0.00000000	      1.49818233	      0.40129544	      6.40354152	      6.47853989	      0.11307185	     34.50114900	      0.46076948	      0.00000000	      0.31685651	      0.28419111	     -1.19349505	      0.58843423	      0.37797418	     -1.26808849	      0.52056356	      0.69098226	     -1.26808849	      0.36213531	      0.69098226	     -1.04430817	      0.29423296	      0.57952251	     -0.96971473	      0.18105181	      0.44021203	     -0.89512129	      2.26327437	      3.21482666	     -6.63786141	      0.00000000	      0.00000000	     27.85042821	     -3.61280589	      6.46319366	     50.23743965	    -12.85253768	     62.65023798	     63.56944936	     89.01254877	    -11.86634561	    -14.10784443	     35.29949248	    -18.15303995	     37.28896878	     68.55070488	     38.60581825	     -9.10492876	     13.55100102
      0.01694915	      2.40339058	     -2.53563655	     95.22058744	      0.14164160	      1.14501238	      0.41417390	      4.14536220	      1.10553726	     -5.60892338	     12.91236702	      0.22536332	     39.08242538	      8.62658536	      0.00000000	      1.51594096	      0.13847665	      7.84187805	      6.57918251	      0.11482840	     34.72743528	      2.39844275	      0.00000000	      0.29804655	      0.31723451	     -1.66315908	      0.55350226	      0.42192190	     -1.76710652	      0.48966068	      0.77132398	     -1.76710652	      0.34063741	      0.77132398	     -1.45526420	      0.27676603	      0.64690461	     -1.35131675	      0.17030380	      0.49139625	     -1.24736931	      2.12891674	      3.58862021	     -9.24999186	      0.00000000	      0.00000000	     27.71875249	     -3.20925529	      7.30844423	     50.65820621	    -14.17880137	     68.00249100	     66.58040921	     89.25720196	    -19.14693937	    -19.20486349	     34.63201395	    -18.01521033	     37.11496802	     69.12182309	     36.48775146	    -10.24037287	     10.85231064
      0.03389831	      2.66173297	     -2.39422067	     97.30292134	      0.13838100	      1.14570119	      0.41314545	      3.78028718	      1.29773724	     -7.06944839	     12.75816648	      0.22267201	     39.14560233	      7.59762495	      0.00000000	      1.58271678	     -0.10385186	      9.01036333	      6.74559991	      0.11773293	     34.86678104	      3.89684726	      0.00000000	      0.29674209	      0.34229827	     -1.97871557	      0.55107973	      0.45525670	     -2.10238529	      0.48751757	      0.83226401	     -2.10238529	      0.33914653	      0.83226401	     -1.73137613	      0.27555470	      0.69801463	     -1.60770640	      0.16955843	      0.53022002	     -1.48403668	      2.11959904	      3.87214649	    -11.00502239	      0.00000000	      0.00000000	     27.66119548	     -3.13201371	      7.56885438	     49.89328518	    -14.70707006	     67.93009545	     68.05417504	     89.30281097	    -19.67024976	    -18.94281129	     34.20957870	    -17.42683165	     37.01650329	     69.20741300	     36.10012400	    -10.80955841	      8.99676912
      0.05084746	      2.83700768	     -2.26566000	     99.15130912	      0.13556437	      1.14611162	      0.41240736	      3.47161121	      1.39919687	     -8.72951280	     12.70559560	      0.22175448	     39.23313086	      7.10497781	      0.00000000	      1.69550738	     -0.30534940	      9.48881963	      7.02516084	      0.12261219	     35.08093143	      5.83482546	      0.00000000	      0.29891529	      0.35910598	     -2.22385547	      0.55511558	      0.47761095	     -2.36284643	      0.49108793	      0.87313027	     -2.36284643	      0.34163028	      0.87313027	     -1.94587353	      0.27757274	      0.73228891	     -1.80688257	      0.17080020	      0.55625516	     -1.66789160	      2.13512202	      4.06227863	    -12.36841695	      0.00000000	      0.00000000	     27.65138670	     -2.99047444	      7.96782588	     48.63182592	    -14.43934991	     64.42343879	     67.88633425	     89.24463293	    -14.85393263	    -15.84163313	     34.21601230	    -17.06182629	     37.92839710	     69.19053685	     35.08515599	    -12.03377546	      6.33903811
